# xmcd
#
# Track frame offsets: 
#        150
#        12652
#        24440
#        37345
#        47295
#        62905
#        81765
#        93165
#        109830
#        123892
#        137207
#        150202
#
# Disc length: 2274 seconds
#
# Revision: 1
# Processed by: cddbd v1.4PL0 Copyright (c) Steve Scherf et al.
# Submitted via: ExactAudioCopy v0.90b3
#
DISCID=9208e00c
DTITLE=Charley Pride - Pride's Platinum Greatest Hits Vol. 2
DYEAR=1900
DGENRE=Country
TTITLE0=Crystal Chandeliers
TTITLE1=She's Just An Old Love
TTITLE2=I'll Be Leaving Alone
TTITLE3=Someone Loves You Honey
TTITLE4=Burgers and Fries
TTITLE5=Where Do I Put Her Memory
TTITLE6=Missin' You
TTITLE7=Roll On Mississippi
TTITLE8=Never Been So Loved (In All My Life)
TTITLE9=Mountain Of Love
TTITLE10=I Don't Think She's In Love Anymore
TTITLE11=You're So Good When You're Bad
EXTD=
EXTT0=
EXTT1=
EXTT2=
EXTT3=
EXTT4=
EXTT5=
EXTT6=
EXTT7=
EXTT8=
EXTT9=
EXTT10=
EXTT11=
PLAYORDER=
